<?xml version="1.0" ?><svg style="enable-background:new 0 0 512 512;" version="1.1" viewBox="0 0 512 512" xml:space="preserve" xmlns="http://www.w3.org/2000/svg" xmlns:xlink="http://www.w3.org/1999/xlink">
  <style type="text/css">
    .st0 {
      fill: #fff;
    }

    .st1 {
      fill: none;
      stroke: #333333;
      stroke-width: 32;
      stroke-linecap: round;
      stroke-linejoin: round;
      stroke-miterlimit: 10;
    }
  </style>
  <g id="Layer_1" />
  <g id="Layer_2">
    <g>
      <path class="st0" d="M256,43.5C138.64,43.5,43.5,138.64,43.5,256S138.64,468.5,256,468.5S468.5,373.36,468.5,256    S373.36,43.5,256,43.5z M324.14,358.2c6.26,6.24,6.27,16.37,0.03,22.63c-3.13,3.13-7.23,4.7-11.33,4.7    c-4.09,0-8.17-1.56-11.3-4.67L187.86,267.5c-3.01-3-4.7-7.07-4.7-11.32s1.68-8.32,4.69-11.33l113.69-113.69    c6.25-6.25,16.38-6.25,22.63,0c6.25,6.25,6.25,16.38,0,22.63L221.8,256.15L324.14,358.2z" />
    </g>
  </g>
</svg>
