<?xml version="1.0" ?><svg style="enable-background:new 0 0 512 512;" version="1.1" viewBox="0 0 512 512" xml:space="preserve" xmlns="http://www.w3.org/2000/svg" xmlns:xlink="http://www.w3.org/1999/xlink">
  <style type="text/css">
    .st0 {
      fill: #fff;
    }

    .st1 {
      fill: none;
      stroke: #333333;
      stroke-width: 32;
      stroke-linecap: round;
      stroke-linejoin: round;
      stroke-miterlimit: 10;
    }
  </style>
  <g id="Layer_1" />
  <g id="Layer_2">
    <g>
      <path class="st0" d="M256,43.5C138.64,43.5,43.5,138.64,43.5,256S138.64,468.5,256,468.5S468.5,373.36,468.5,256    S373.36,43.5,256,43.5z M324.14,267.5L210.45,380.86c-3.12,3.11-7.21,4.67-11.3,4.67c-4.1,0-8.2-1.57-11.33-4.7    c-6.24-6.26-6.22-16.39,0.03-22.63L290.2,256.15L187.84,153.79c-6.25-6.25-6.25-16.38,0-22.63c6.25-6.25,16.38-6.25,22.63,0    l113.69,113.69c3,3,4.69,7.08,4.69,11.33S327.15,264.5,324.14,267.5z" />
    </g>
  </g>
</svg>
